<svg xmlns="http://www.w3.org/2000/svg" version="1.1" xmlns:xlink="http://www.w3.org/1999/xlink" xmlns:svgjs="http://svgjs.dev/svgjs" width="1000" height="1000" viewBox="0 0 1000 1000"><rect width="1000" height="1000" fill="#000000"></rect><g transform="matrix(0.7,0,0,0.7,149.57575757575756,282.1265587044535)"><svg viewBox="0 0 396 247" data-background-color="#ffffff" preserveAspectRatio="xMidYMid meet" height="623" width="1000" xmlns="http://www.w3.org/2000/svg" xmlns:xlink="http://www.w3.org/1999/xlink"><defs></defs><g id="tight-bounds" transform="matrix(1,0,0,1,0.2400000000000091,-0.09999999999999432)"><svg viewBox="0 0 395.52 247.2" height="247.2" width="395.52"><g><svg></svg></g><g><svg viewBox="0 0 395.52 247.2" height="247.2" width="395.52"><g transform="matrix(1,0,0,1,75.54432,101.09449738299563)"><svg viewBox="0 0 244.43135999999998 45.01100523400874" height="45.01100523400874" width="244.43135999999998"><g><svg viewBox="0 0 244.43135999999998 45.01100523400874" height="45.01100523400874" width="244.43135999999998"><g><svg viewBox="0 0 244.43136 45.01100523400875" height="45.01100523400874" width="244.43135999999998"><g><svg viewBox="0 0 244.43136 45.01100523400875" height="45.01100523400875" width="244.43136"><g><svg viewBox="0 0 244.43136 45.01100523400875" height="45.01100523400875" width="244.43136"><g><svg viewBox="0 0 244.43136 24.27678543598469" height="24.27678543598469" width="244.43136"><g transform="matrix(1,0,0,1,0,0)"><svg width="244.43136" viewBox="2 -36.55 470.17 46.699999999999996" height="24.27678543598469" data-palette-color="#096a2e"><path d="M31.55-26.9L31.55-26.9Q27.05-26.9 25.23-24.58 23.4-22.25 23.4-17.2L23.4-17.2Q23.4-9.25 28.05-9.25L28.05-9.25Q29-9.25 29.3-9.3L29.3-9.3Q28.7-9.3 28.33-11.4 27.95-13.5 27.95-15.8 27.95-18.1 29.2-18.78 30.45-19.45 32.68-19.45 34.9-19.45 35.77-19.43 36.65-19.4 37.77-19.23 38.9-19.05 39.5-18.7L39.5-18.7Q40.9-17.9 40.9-16.3L40.9-16.3 40.9-9Q40.9-5.1 39.5-2.78 38.1-0.45 34.25-0.05L34.25-0.05Q28.85 0.5 17.75 0.5L17.75 0.5Q13.3 0.5 10.13-0.9 6.95-2.3 5.2-4.8L5.2-4.8Q2-9.45 2-16.63 2-23.8 6.6-29.4 11.2-35 18.85-35.4L18.85-35.4Q24.1-35.7 26.45-35.7L26.45-35.7Q35-35.7 38.6-34.65L38.6-34.65Q41.05-33.95 41.05-30.7L41.05-30.7Q41.05-26.35 38.5-26.35L38.5-26.35Q37.7-26.4 35.3-26.65 32.9-26.9 31.55-26.9ZM64.65-26.25L64.65-26.25Q80.95-26.25 81.1-15.65L81.1-15.65Q81.2-11.15 81.2-7.4 81.2-3.65 81.15-2.35 81.1-1.05 80.47-0.48 79.85 0.1 78.05 0.1L78.05 0.1 67.45 0.1Q65.85 0.1 65.25-0.48 64.65-1.05 64.6-2.2L64.6-2.2Q64.6-2.25 64.57-2.38 64.55-2.5 64.55-2.6L64.55-2.6Q61.25 0.8 55.55 0.8L55.55 0.8Q51.6 0.8 48.82-1.18 46.05-3.15 46.05-6.63 46.05-10.1 48.02-12.18 50-14.25 52.72-15 55.45-15.75 58.57-15.75 61.7-15.75 64.7-15.15L64.7-15.15 64.7-15.35Q64.7-17.85 63.72-18.95 62.75-20.05 60.57-20.05 58.4-20.05 56.95-19.68 55.5-19.3 54.75-18.9L54.75-18.9Q52.7-17.7 51.9-17.7 51.1-17.7 50.47-18.45 49.85-19.2 49.85-20.78 49.85-22.35 50.42-22.95 51-23.55 52.25-24.15L52.25-24.15Q56.6-26.25 64.65-26.25ZM62.3-5.8L62.3-5.8Q64.5-5.8 64.55-6.65L64.55-6.65Q64.65-8.3 64.65-11L64.65-11Q64.65-12.05 63.05-12.05 61.45-12.05 60.45-11.28 59.45-10.5 59.45-9 59.45-7.5 60.27-6.65 61.1-5.8 62.3-5.8ZM103.6-17.8L103.6-17.8Q100.65-17.8 100.65-12.93 100.65-8.05 103.6-8.05L103.6-8.05Q104.75-8.05 105.67-8.83 106.6-9.6 106.6-11L106.6-11 106.6-14.85Q106.6-16.25 105.67-17.03 104.75-17.8 103.6-17.8ZM120.1-0.1L120.1-0.1 114.8 0Q111.9 0 110.9-0.1L110.9-0.1Q107.8-0.3 107.8-3.6L107.8-3.6Q105.95-1.5 103.02-0.2 100.1 1.1 97.65 1.1L97.65 1.1Q92.65 1.1 89.42-2.2 86.2-5.5 86.2-12.4L86.2-12.4Q86.2-21 92.05-24.4L92.05-24.4Q95.15-26.25 99.3-26.25 103.45-26.25 106.35-24.4L106.35-24.4Q107.3-23.75 107.4-24.83 107.5-25.9 107.5-28L107.5-28 107.5-32.15Q107.5-33.15 107.55-34.18 107.6-35.2 108.15-35.88 108.7-36.55 110.4-36.55L110.4-36.55 120-36.55Q121.65-36.55 122.22-35.75 122.8-34.95 122.85-33.3L122.85-33.3Q123-26.2 123-18.8L123-18.8Q123-18.8 122.9-2.45L122.9-2.45Q122.9-1.45 121.97-0.78 121.05-0.1 120.1-0.1ZM144.89-17.8L144.89-17.8Q141.94-17.8 141.94-13.48 141.94-9.15 144.79-9.15L144.79-9.15Q146.04-9.15 146.97-9.83 147.89-10.5 147.89-11.75L147.89-11.75 147.89-15.2Q147.89-16.4 146.97-17.1 146.04-17.8 144.89-17.8ZM163.69-23.05L163.69-23.05 163.79-7.7Q163.79-2.7 163.74-0.1 163.69 2.5 162.24 4.6 160.79 6.7 158.29 7.9L158.29 7.9Q153.39 10.15 145.24 10.15 137.09 10.15 131.89 7.95L131.89 7.95Q130.64 7.4 130.07 6.78 129.49 6.15 129.49 4.58 129.49 3 130.12 2.25 130.74 1.5 131.59 1.5 132.44 1.5 133.69 2.1L133.69 2.1Q137.54 4 141.39 4L141.39 4Q143.14 4 144.54 3.63 145.94 3.25 147.02 2.1 148.09 0.95 148.09-0.85L148.09-0.85 148.04-3.5Q148.04-4 147.74-4L147.74-4Q147.59-4 147.44-3.85L147.44-3.85Q143.44 0 138.64 0 133.84 0 130.62-3.05 127.39-6.1 127.39-12.7 127.39-19.3 131.19-22.68 134.99-26.05 140.49-26.05 145.99-26.05 148.64-22.6L148.64-22.6Q148.69-23.9 149.59-24.6 150.49-25.3 151.59-25.4 152.69-25.5 155.59-25.5L155.59-25.5 160.89-25.4Q161.84-25.4 162.77-24.73 163.69-24.05 163.69-23.05ZM176.69-23.93Q178.99-25.05 181.42-25.55 183.84-26.05 187.42-26.05 190.99-26.05 194.24-25.18 197.49-24.3 199.09-22.8L199.09-22.8Q201.89-20.05 201.89-16.35L201.89-16.35Q201.89-10.55 192.09-10.55L192.09-10.55Q188.64-10.55 184.94-11.2L184.94-11.2Q185.09-7.9 186.17-6.55 187.24-5.2 189.99-5.2 192.74-5.2 194.54-5.8 196.34-6.4 197.44-7.03 198.54-7.65 199.32-7.65 200.09-7.65 200.64-6.95L200.64-6.95Q201.49-6.05 201.49-4.48 201.49-2.9 200.87-2.33 200.24-1.75 198.89-1.2L198.89-1.2Q194.14 0.8 185.39 0.8L185.39 0.8Q178.14 0.8 173.47-2.68 168.79-6.15 168.79-12.05L168.79-12.05Q168.79-14.9 169.84-17.28 170.89-19.65 172.64-21.23 174.39-22.8 176.69-23.93ZM188.29-20.35L188.29-20.35Q185.24-20.35 184.99-15.4L184.99-15.4Q187.39-15.2 187.49-15.2L187.49-15.2Q190.79-15.2 190.79-17.4L190.79-17.4Q190.79-20.35 188.29-20.35ZM208.99-11.55L208.99-18.2Q208.99-19 207.89-19L207.89-19Q205.94-19 205.59-20.3L205.59-20.3Q205.39-20.95 205.39-22.3 205.39-23.65 205.76-24.23 206.14-24.8 207.21-25.08 208.29-25.35 209.16-26.03 210.04-26.7 212.76-29 215.49-31.3 216.56-32 217.64-32.7 219.24-32.7L219.24-32.7 221.74-32.7Q223.49-32.7 224.09-32.27 224.69-31.85 224.69-30.95L224.69-30.95 224.69-26.2Q224.69-25.15 225.59-25.15L225.59-25.15 230.94-25.15Q232.24-25.15 232.81-24.6 233.39-24.05 233.39-22.08 233.39-20.1 232.79-19.55 232.19-19 230.99-19L230.99-19 225.79-19Q225.09-19 224.89-18.65 224.69-18.3 224.69-17.65L224.69-17.65 224.69-11.65Q224.79-9.95 225.96-8.8 227.14-7.65 229.29-7.65L229.29-7.65Q230.34-7.65 231.89-8.22 233.44-8.8 233.99-8.8L233.99-8.8Q235.34-8.8 235.34-4.8L235.34-4.8Q235.34-1.9 233.79-1.3L233.79-1.3Q232.19-0.75 229.29-0.4 226.39-0.05 223.49-0.05 220.59-0.05 217.96-0.53 215.34-1 213.19-2.2L213.19-2.2Q208.99-4.65 208.99-11.55L208.99-11.55ZM250.94-6.55L250.94-6.55Q250.94-7.95 249.76-8.75 248.59-9.55 246.91-9.98 245.24-10.4 243.54-10.98 241.84-11.55 240.66-12.98 239.49-14.4 239.49-16.75L239.49-16.75Q239.49-26.05 253.94-26.05L253.94-26.05Q260.14-26.05 263.89-23.95L263.89-23.95Q265.09-23.3 265.59-22.73 266.09-22.15 266.09-20.7 266.09-19.25 265.51-18.53 264.94-17.8 264.36-17.8 263.79-17.8 261.86-18.93 259.94-20.05 257.89-20.1L257.89-20.1Q256.24-20.1 256.24-18.45L256.24-18.45Q256.24-17.35 257.39-16.7 258.54-16.05 260.19-15.58 261.84-15.1 263.49-14.43 265.14-13.75 266.29-12.18 267.44-10.6 267.44-8.2L267.44-8.2Q267.44 1.1 252.99 1.1L252.99 1.1Q245.94 1.1 241.49-0.95L241.49-0.95Q240.14-1.5 239.54-2.08 238.94-2.65 238.94-4.17 238.94-5.7 239.56-6.35 240.19-7 240.61-7 241.04-7 243.49-5.9 245.94-4.8 248.44-4.8 250.94-4.8 250.94-6.55ZM307.93 1Q303.63 1 299.91 0.05 296.18-0.9 294.66-1.85 293.13-2.8 292.63-3.2L292.63-3.2Q291.33-4.25 291.33-6.1L291.33-6.1Q291.33-7.55 291.68-8.85L291.68-8.85Q292.33-11.3 294.03-11.3L294.03-11.3Q294.58-11.25 297.56-10.15 300.53-9.05 302.23-9.05L302.23-9.05Q304.78-9.05 304.78-11.05L304.78-11.05Q304.78-12.25 303.53-13.28 302.28-14.3 300.51-15.25 298.73-16.2 296.93-17.43 295.13-18.65 293.88-20.83 292.63-23 292.63-25.9L292.63-25.9Q292.63-30.7 297.33-33.43 302.03-36.15 309.48-36.15 316.93-36.15 321.31-34.63 325.68-33.1 325.68-30.4L325.68-30.4Q325.68-28.45 324.78-26.98 323.88-25.5 322.88-25.5L322.88-25.5Q322.53-25.5 320.56-26.28 318.58-27.05 316.98-27.05L316.98-27.05Q313.83-27.05 313.83-24.6L313.83-24.6Q313.83-23.4 315.33-22.4 316.83-21.4 318.96-20.48 321.08-19.55 323.23-18.4 325.38-17.25 326.88-15.25 328.38-13.25 328.38-10.4 328.38-7.55 326.56-5.2 324.73-2.85 321.73-1.55L321.73-1.55Q315.78 1 307.93 1L307.93 1ZM334.98-11.55L334.98-18.2Q334.98-19 333.88-19L333.88-19Q331.93-19 331.58-20.3L331.58-20.3Q331.38-20.95 331.38-22.3 331.38-23.65 331.75-24.23 332.13-24.8 333.2-25.08 334.28-25.35 335.15-26.03 336.03-26.7 338.75-29 341.48-31.3 342.55-32 343.63-32.7 345.23-32.7L345.23-32.7 347.73-32.7Q349.48-32.7 350.08-32.27 350.68-31.85 350.68-30.95L350.68-30.95 350.68-26.2Q350.68-25.15 351.58-25.15L351.58-25.15 356.93-25.15Q358.23-25.15 358.8-24.6 359.38-24.05 359.38-22.08 359.38-20.1 358.78-19.55 358.18-19 356.98-19L356.98-19 351.78-19Q351.08-19 350.88-18.65 350.68-18.3 350.68-17.65L350.68-17.65 350.68-11.65Q350.78-9.95 351.95-8.8 353.13-7.65 355.28-7.65L355.28-7.65Q356.33-7.65 357.88-8.22 359.43-8.8 359.98-8.8L359.98-8.8Q361.33-8.8 361.33-4.8L361.33-4.8Q361.33-1.9 359.78-1.3L359.78-1.3Q358.18-0.75 355.28-0.4 352.38-0.05 349.48-0.05 346.58-0.05 343.95-0.53 341.33-1 339.18-2.2L339.18-2.2Q334.98-4.65 334.98-11.55L334.98-11.55ZM380.63-12.5Q380.63-6.9 383.58-6.9 386.53-6.9 386.53-12.5L386.53-12.5Q386.53-15.05 385.93-16.43 385.33-17.8 383.58-17.8 381.83-17.8 381.23-16.43 380.63-15.05 380.63-12.5L380.63-12.5ZM402.23-12.5Q402.23 1.1 383.58 1.1 364.93 1.1 364.93-12.5L364.93-12.5Q364.93-18.95 369.68-22.5 374.43-26.05 383.58-26.05 392.73-26.05 397.48-22.5 402.23-18.95 402.23-12.5L402.23-12.5ZM410.42-25.45L410.42-25.45 420.17-25.45Q421.87-25.45 422.52-24.73 423.17-24 423.17-22.55L423.17-22.55 423.17-20.75Q425.97-26.05 432.27-26.05L432.27-26.05Q434.37-26.05 435.72-24.7 437.07-23.35 437.07-21.1 437.07-18.85 435.87-16.63 434.67-14.4 432.52-14.4L432.52-14.4Q431.52-14.4 429.72-15.43 427.92-16.45 426.82-16.45 425.72-16.45 424.55-15.65 423.37-14.85 423.37-13L423.37-13Q423.37-4.95 423.07-2.35L423.07-2.35Q422.92-1.5 422.22-0.85 421.52-0.2 419.75-0.08 417.97 0.05 416.22 0.05 414.47 0.05 410.27-0.15L410.27-0.15Q409.07-0.2 408.37-0.85 407.67-1.5 407.57-2.35L407.57-2.35Q407.22-5.6 407.22-12.3 407.22-19 407.42-21.48 407.62-23.95 408.17-24.7 408.72-25.45 410.42-25.45ZM446.97-23.93Q449.27-25.05 451.7-25.55 454.12-26.05 457.7-26.05 461.27-26.05 464.52-25.18 467.77-24.3 469.37-22.8L469.37-22.8Q472.17-20.05 472.17-16.35L472.17-16.35Q472.17-10.55 462.37-10.55L462.37-10.55Q458.92-10.55 455.22-11.2L455.22-11.2Q455.37-7.9 456.45-6.55 457.52-5.2 460.27-5.2 463.02-5.2 464.82-5.8 466.62-6.4 467.72-7.03 468.82-7.65 469.6-7.65 470.37-7.65 470.92-6.95L470.92-6.95Q471.77-6.05 471.77-4.48 471.77-2.9 471.15-2.33 470.52-1.75 469.17-1.2L469.17-1.2Q464.42 0.8 455.67 0.8L455.67 0.8Q448.42 0.8 443.75-2.68 439.07-6.15 439.07-12.05L439.07-12.05Q439.07-14.9 440.12-17.28 441.17-19.65 442.92-21.23 444.67-22.8 446.97-23.93ZM458.57-20.35L458.57-20.35Q455.52-20.35 455.27-15.4L455.27-15.4Q457.67-15.2 457.77-15.2L457.77-15.2Q461.07-15.2 461.07-17.4L461.07-17.4Q461.07-20.35 458.57-20.35Z" opacity="1" transform="matrix(1,0,0,1,0,0)" fill="#ffffff" class="undefined-text-0" data-fill-palette-color="primary" id="text-0"></path></svg></g></svg></g><g transform="matrix(1,0,0,1,0,30.00795183457021)"><svg viewBox="0 0 244.43136 15.003053399438539" height="15.003053399438539" width="244.43136"><g transform="matrix(1,0,0,1,0,0)"><svg width="244.43136" viewBox="3 -31.7 659.83 40.5" height="15.003053399438539" data-palette-color="#096a2e"><path d="M9.1 0L3 0 3-22.4 7.1-22.4 8.35-21.8Q9.8-22.05 11.9-22.23 14-22.4 16.9-22.4L16.9-22.4 19.4-22.4Q20.85-22.4 22.2-22.03 23.55-21.65 24.2-20.95L24.2-20.95Q25.5-21.6 27.8-22 30.1-22.4 33.8-22.4L33.8-22.4 36.3-22.4Q38.8-22.4 40.15-21.7 41.5-21 42.08-19.95 42.65-18.9 42.78-17.82 42.9-16.75 42.9-16L42.9-16 42.9 0 36.8 0 36.8-16.1Q36.8-18.1 34.4-18.1L34.4-18.1 27.4-18.1Q26.6-18.1 26.3-17.9 26-17.7 26-17L26-17 26 0 19.9 0 19.9-16.1Q19.9-18.1 17.5-18.1L17.5-18.1 10.6-18.1Q9.65-18.1 9.38-17.93 9.1-17.75 9.1-17L9.1-17 9.1 0ZM86.91 0L73.11 0Q69.76 0 68.14-1.35 66.51-2.7 66.51-5.75L66.51-5.75 66.51-16Q66.51-16.75 66.64-17.82 66.76-18.9 67.34-19.95 67.91-21 69.29-21.7 70.66-22.4 73.11-22.4L73.11-22.4 86.91-22.4Q89.41-22.4 90.76-21.7 92.11-21 92.69-19.95 93.26-18.9 93.39-17.82 93.51-16.75 93.51-16L93.51-16 93.51-6.4Q93.51-5.5 93.39-4.4 93.26-3.3 92.66-2.3 92.06-1.3 90.71-0.65 89.36 0 86.91 0L86.91 0ZM75.01-4.3L75.01-4.3 85.01-4.3Q87.46-4.3 87.46-6.3L87.46-6.3 87.46-16.1Q87.46-18.1 85.01-18.1L85.01-18.1 75.01-18.1Q72.61-18.1 72.61-16.1L72.61-16.1 72.61-6.3Q72.61-4.3 75.01-4.3ZM125.98 0L123.48 0Q120.98 0 119.63-0.65 118.28-1.3 117.7-2.3 117.13-3.3 117-4.4 116.88-5.5 116.88-6.4L116.88-6.4 116.88-16Q116.88-16.75 117-17.82 117.13-18.9 117.7-19.95 118.28-21 119.65-21.7 121.03-22.4 123.48-22.4L123.48-22.4 126.03-22.4Q130.63-22.4 133.45-22.23 136.28-22.05 137.78-21.85L137.78-21.85 137.78-31.7 143.88-31.7 143.88 0 139.78 0 137.83-1Q135.73-0.65 132.78-0.33 129.83 0 125.98 0L125.98 0ZM125.38-4.3L125.38-4.3 136.23-4.3Q137.28-4.3 137.53-4.55 137.78-4.8 137.78-5.8L137.78-5.8 137.78-17.75Q136.08-17.85 133.48-17.98 130.88-18.1 127.93-18.1L127.93-18.1 125.38-18.1Q122.98-18.1 122.98-16.1L122.98-16.1 122.98-6.3Q122.98-4.3 125.38-4.3ZM184.89 0L174.84 0Q172.34 0 170.99-0.65 169.64-1.3 169.07-2.3 168.49-3.3 168.37-4.4 168.24-5.5 168.24-6.4L168.24-6.4 168.24-16Q168.24-16.75 168.37-17.82 168.49-18.9 169.07-19.95 169.64-21 171.02-21.7 172.39-22.4 174.84-22.4L174.84-22.4 185.59-22.4Q188.89-22.4 190.77-21.78 192.64-21.15 193.42-19.75 194.19-18.35 194.19-16L194.19-16 194.19-8.6 185.44-8.6Q180.94-8.6 178.12-8.8 175.29-9 174.34-9.05L174.34-9.05 174.34-6.3Q174.29-4.3 176.74-4.3L176.74-4.3 179.29-4.3Q181.99-4.3 184.57-4.38 187.14-4.45 189.29-4.58 191.44-4.7 192.74-4.8L192.74-4.8 194.74-1.55Q194.74 0 184.89 0L184.89 0ZM174.34-16.1L174.34-12.9 188.09-12.9 188.09-16.1Q188.09-17.1 187.87-17.5 187.64-17.9 186.54-18 185.44-18.1 182.79-18.1L182.79-18.1 176.74-18.1Q174.34-18.1 174.34-16.1L174.34-16.1ZM224.21 0L218.11 0 218.11-22.4 222.21-22.4 224.11-21.4Q225.41-22.1 226.91-22.5 228.41-22.9 230.71-22.9L230.71-22.9Q234.36-22.9 236.63-22.1 238.91-21.3 239.66-20.9L239.66-20.9 237.91-16.55Q237.31-16.85 235.93-17.32 234.56-17.8 232.71-18.2 230.86-18.6 228.66-18.6L228.66-18.6 228.11-18.6Q225.71-18.6 224.98-17.65 224.26-16.7 224.21-14.5L224.21-14.5 224.21 0ZM267.62 0L261.52 0 261.52-22.4 265.62-22.4 267.62-21.4Q269.72-21.8 272.67-22.1 275.62-22.4 279.42-22.4L279.42-22.4 281.92-22.4Q284.42-22.4 285.77-21.7 287.12-21 287.69-19.95 288.27-18.9 288.39-17.82 288.52-16.75 288.52-16L288.52-16 288.52 0 282.42 0 282.42-16.1Q282.42-18.1 280.02-18.1L280.02-18.1 269.12-18.1Q268.17-18.1 267.89-17.93 267.62-17.75 267.62-17L267.62-17 267.62 0ZM360.95 8.8L358.45 8.8Q352.95 8.8 349.5 8.7 346.05 8.6 344.2 8.4 342.35 8.2 341.67 7.9 341 7.6 341 7.25L341 7.25 342.5 3.5Q343.3 3.75 345.32 4.13 347.35 4.5 350.5 4.5L350.5 4.5 359.05 4.5Q360.9 4.5 361.67 3.95 362.45 3.4 362.45 2L362.45 2 362.45-1Q360.3-0.6 357.37-0.3 354.45 0 350.65 0L350.65 0 348.15 0Q345.65 0 344.3-0.65 342.95-1.3 342.37-2.3 341.8-3.3 341.67-4.4 341.55-5.5 341.55-6.4L341.55-6.4 341.55-16Q341.55-16.75 341.67-17.82 341.8-18.9 342.37-19.95 342.95-21 344.32-21.7 345.7-22.4 348.15-22.4L348.15-22.4 350.7-22.4Q355.95-22.4 358.87-22.2 361.8-22 363.15-21.75L363.15-21.75 364.45-22.4 368.55-22.4 368.55 2.4Q368.55 3.3 368.27 4.4 368 5.5 367.2 6.5 366.4 7.5 364.9 8.15 363.4 8.8 360.95 8.8L360.95 8.8ZM350.05-4.3L350.05-4.3 360.9-4.3Q362.05-4.3 362.25-4.5 362.45-4.7 362.45-5.8L362.45-5.8 362.45-17.75Q360.75-17.85 358.15-17.98 355.55-18.1 352.6-18.1L352.6-18.1 350.05-18.1Q347.65-18.1 347.65-16.1L347.65-16.1 347.65-6.3Q347.6-4.3 350.05-4.3ZM401.86 0L399.36 0Q395.56 0 393.86-1.78 392.16-3.55 392.16-6.65L392.16-6.65Q392.16-9.9 393.94-11.65 395.71-13.4 399.36-13.4L399.36-13.4 401.91-13.4Q405.66-13.4 408.66-13.2 411.66-13 413.61-12.8L413.61-12.8 413.61-16.1Q413.61-16.55 413.51-17.03 413.41-17.5 412.91-17.8 412.41-18.1 411.21-18.1L411.21-18.1 408.71-18.1Q403.26-18.1 399.61-17.93 395.96-17.75 394.66-17.6L394.66-17.6 394.11-21.4Q394.11-22.1 397.91-22.25 401.71-22.4 410.61-22.4L410.61-22.4 413.11-22.4Q415.61-22.4 416.96-21.7 418.31-21 418.89-19.95 419.46-18.9 419.59-17.82 419.71-16.75 419.71-16L419.71-16 419.71 0 415.61 0 413.66-1Q411.56-0.65 408.61-0.33 405.66 0 401.86 0L401.86 0ZM400.66-4.3L400.66-4.3 412.11-4.3Q413.21-4.3 413.41-4.5 413.61-4.7 413.61-5.75L413.61-5.75 413.61-9.6 400.66-9.6Q399.31-9.6 398.79-8.95 398.26-8.3 398.26-6.9L398.26-6.9Q398.26-5.5 398.86-4.9 399.46-4.3 400.66-4.3ZM452.42 0L449.92 0Q447.42 0 446.07-0.65 444.72-1.3 444.15-2.3 443.57-3.3 443.45-4.4 443.32-5.5 443.32-6.4L443.32-6.4 443.32-16Q443.32-16.75 443.45-17.82 443.57-18.9 444.15-19.95 444.72-21 446.1-21.7 447.47-22.4 449.92-22.4L449.92-22.4 452.47-22.4Q457.07-22.4 459.9-22.23 462.72-22.05 464.22-21.85L464.22-21.85 464.22-31.7 470.32-31.7 470.32 0 466.22 0 464.27-1Q462.17-0.65 459.22-0.33 456.27 0 452.42 0L452.42 0ZM451.82-4.3L451.82-4.3 462.67-4.3Q463.72-4.3 463.97-4.55 464.22-4.8 464.22-5.8L464.22-5.8 464.22-17.75Q462.52-17.85 459.92-17.98 457.32-18.1 454.37-18.1L454.37-18.1 451.82-18.1Q449.42-18.1 449.42-16.1L449.42-16.1 449.42-6.3Q449.42-4.3 451.82-4.3ZM514.14 8.8L511.64 8.8Q506.14 8.8 502.69 8.7 499.24 8.6 497.39 8.4 495.54 8.2 494.86 7.9 494.19 7.6 494.19 7.25L494.19 7.25 495.69 3.5Q496.49 3.75 498.51 4.13 500.54 4.5 503.69 4.5L503.69 4.5 512.24 4.5Q514.09 4.5 514.86 3.95 515.64 3.4 515.64 2L515.64 2 515.64-1Q513.49-0.6 510.56-0.3 507.64 0 503.84 0L503.84 0 501.34 0Q498.84 0 497.49-0.65 496.14-1.3 495.56-2.3 494.99-3.3 494.86-4.4 494.74-5.5 494.74-6.4L494.74-6.4 494.74-16Q494.74-16.75 494.86-17.82 494.99-18.9 495.56-19.95 496.14-21 497.51-21.7 498.89-22.4 501.34-22.4L501.34-22.4 503.89-22.4Q509.14-22.4 512.06-22.2 514.99-22 516.34-21.75L516.34-21.75 517.64-22.4 521.74-22.4 521.74 2.4Q521.74 3.3 521.46 4.4 521.19 5.5 520.39 6.5 519.59 7.5 518.09 8.15 516.59 8.8 514.14 8.8L514.14 8.8ZM503.24-4.3L503.24-4.3 514.09-4.3Q515.24-4.3 515.44-4.5 515.64-4.7 515.64-5.8L515.64-5.8 515.64-17.75Q513.94-17.85 511.34-17.98 508.74-18.1 505.79-18.1L505.79-18.1 503.24-18.1Q500.84-18.1 500.84-16.1L500.84-16.1 500.84-6.3Q500.79-4.3 503.24-4.3ZM562.25 0L552.2 0Q549.7 0 548.35-0.65 547-1.3 546.43-2.3 545.85-3.3 545.73-4.4 545.6-5.5 545.6-6.4L545.6-6.4 545.6-16Q545.6-16.75 545.73-17.82 545.85-18.9 546.43-19.95 547-21 548.38-21.7 549.75-22.4 552.2-22.4L552.2-22.4 562.95-22.4Q566.25-22.4 568.13-21.78 570-21.15 570.78-19.75 571.55-18.35 571.55-16L571.55-16 571.55-8.6 562.8-8.6Q558.3-8.6 555.48-8.8 552.65-9 551.7-9.05L551.7-9.05 551.7-6.3Q551.65-4.3 554.1-4.3L554.1-4.3 556.65-4.3Q559.35-4.3 561.93-4.38 564.5-4.45 566.65-4.58 568.8-4.7 570.1-4.8L570.1-4.8 572.1-1.55Q572.1 0 562.25 0L562.25 0ZM551.7-16.1L551.7-12.9 565.45-12.9 565.45-16.1Q565.45-17.1 565.23-17.5 565-17.9 563.9-18 562.8-18.1 560.15-18.1L560.15-18.1 554.1-18.1Q551.7-18.1 551.7-16.1L551.7-16.1ZM605.72 0L604.17 0Q600.37 0 598.97-1.6 597.57-3.2 597.57-6.4L597.57-6.4 597.57-18.1 593.47-18.1 593.47-22.4 595.57-22.4Q596.52-22.4 596.94-22.7 597.37-23 597.57-23.9L597.57-23.9 598.57-29.25 603.67-29.25 603.67-22.4 614.07-22.4 614.07-18.1 603.67-18.1 603.67-6.35Q603.67-5.1 604.27-4.7 604.87-4.3 606.07-4.3L606.07-4.3 613.12-4.3 613.62-0.5Q612.57-0.35 610.42-0.18 608.27 0 605.72 0L605.72 0ZM656.23 0L642.08 0Q638.73 0 637.33-0.35 635.93-0.7 635.93-1.05L635.93-1.05 637.43-4.8Q638.88-4.65 642.76-4.48 646.63-4.3 652.33-4.3L652.33-4.3 654.83-4.3Q656.08-4.3 656.41-4.98 656.73-5.65 656.73-6.8L656.73-6.8Q656.73-7.95 656.36-8.65 655.98-9.35 654.83-9.35L654.83-9.35 642.53-9.35Q639.03-9.35 637.48-10.68 635.93-12 635.93-14.65L635.93-14.65 635.93-16.65Q635.93-17.35 636.08-18.3 636.23-19.25 636.83-20.2 637.43-21.15 638.78-21.78 640.13-22.4 642.53-22.4L642.53-22.4 656.33-22.4Q659.33-22.4 660.58-22.05 661.83-21.7 661.83-21.35L661.83-21.35 661.33-17.6Q659.88-17.75 655.98-17.93 652.08-18.1 646.43-18.1L646.43-18.1 643.93-18.1Q642.68-18.1 642.36-17.43 642.03-16.75 642.03-15.85L642.03-15.85Q642.03-14.9 642.36-14.28 642.68-13.65 643.93-13.65L643.93-13.65 656.23-13.65Q659.63-13.65 661.23-12.25 662.83-10.85 662.83-8.7L662.83-8.7 662.83-5.75Q662.83-4.85 662.71-3.85 662.58-2.85 661.98-1.98 661.38-1.1 660.03-0.55 658.68 0 656.23 0L656.23 0Z" opacity="1" transform="matrix(1,0,0,1,0,0)" fill="#ffffff" class="undefined-text-1" data-fill-palette-color="secondary" id="text-1"></path></svg></g></svg></g></svg></g></svg></g></svg></g></svg></g></svg></g><g><path d="M151.089 151.837A122.216 122.216 0 1 0 151.089 95.363L153.278 95.363A120.026 120.026 0 1 1 153.278 151.837L151.089 151.837" fill="#096a2e" stroke="transparent" data-fill-palette-color="tertiary"></path></g></svg></g></svg><rect width="395.52" height="247.2" fill="none" stroke="none" visibility="hidden"></rect></g></svg></g></svg>